<?xml version="1.0" encoding="UTF-8"?>
<svg width="700pt" height="700pt" version="1.1" viewBox="0 0 700 700" xmlns="http://www.w3.org/2000/svg" xmlns:xlink="http://www.w3.org/1999/xlink">
 <defs>
  <symbol id="l" overflow="visible">
   <path d="m29.312-1.75c-1.5117 0.78125-3.0898 1.3711-4.7344 1.7656-1.6367 0.40625-3.3398 0.60938-5.1094 0.60938-5.3125 0-9.5273-1.4844-12.641-4.4531-3.1055-2.9688-4.6562-7-4.6562-12.094s1.5508-9.125 4.6562-12.094c3.1133-2.9688 7.3281-4.4531 12.641-4.4531 1.7695 0 3.4727 0.19922 5.1094 0.59375 1.6445 0.39844 3.2227 0.99219 4.7344 1.7812v6.5938c-1.5312-1.0391-3.0391-1.8008-4.5156-2.2812-1.4805-0.48828-3.0391-0.73438-4.6719-0.73438-2.9375 0-5.2461 0.94531-6.9219 2.8281-1.6797 1.875-2.5156 4.4648-2.5156 7.7656 0 3.293 0.83594 5.8828 2.5156 7.7656 1.6758 1.875 3.9844 2.8125 6.9219 2.8125 1.6328 0 3.1914-0.23828 4.6719-0.71875 1.4766-0.48828 2.9844-1.2539 4.5156-2.2969z"/>
  </symbol>
  <symbol id="h" overflow="visible">
   <path d="m21.453-17.406c-0.67969-0.3125-1.3516-0.53906-2.0156-0.6875-0.65625-0.15625-1.3203-0.23438-1.9844-0.23438-1.9688 0-3.4844 0.63281-4.5469 1.8906-1.0547 1.2617-1.5781 3.0703-1.5781 5.4219v11.016h-7.6562v-23.922h7.6562v3.9219c0.97656-1.5625 2.1016-2.7031 3.375-3.4219 1.2812-0.71875 2.8125-1.0781 4.5938-1.0781 0.25 0 0.52344 0.011719 0.82812 0.03125 0.30078 0.023438 0.73438 0.070312 1.2969 0.14062z"/>
  </symbol>
  <symbol id="a" overflow="visible">
   <path d="m27.562-12.031v2.1875h-17.891c0.1875 1.793 0.83203 3.1367 1.9375 4.0312 1.1133 0.89844 2.6719 1.3438 4.6719 1.3438 1.6016 0 3.25-0.23438 4.9375-0.70312 1.6875-0.47656 3.4219-1.2031 5.2031-2.1719v5.8906c-1.8047 0.6875-3.6094 1.2031-5.4219 1.5469-1.8125 0.35156-3.6211 0.53125-5.4219 0.53125-4.3359 0-7.7031-1.0977-10.109-3.2969-2.3984-2.207-3.5938-5.2969-3.5938-9.2656 0-3.9062 1.1758-6.9727 3.5312-9.2031 2.3633-2.2383 5.6094-3.3594 9.7344-3.3594 3.7578 0 6.7695 1.1367 9.0312 3.4062 2.2578 2.2617 3.3906 5.2812 3.3906 9.0625zm-7.8594-2.5312c0-1.457-0.42969-2.6289-1.2812-3.5156-0.84375-0.89453-1.9492-1.3438-3.3125-1.3438-1.4922 0-2.6992 0.41797-3.625 1.25-0.91797 0.83594-1.4922 2.0391-1.7188 3.6094z"/>
  </symbol>
  <symbol id="c" overflow="visible">
   <path d="m14.391-10.766c-1.5938 0-2.793 0.27344-3.5938 0.8125-0.80469 0.54297-1.2031 1.3398-1.2031 2.3906 0 0.96875 0.32031 1.7305 0.96875 2.2812 0.64453 0.54297 1.5469 0.8125 2.7031 0.8125 1.4375 0 2.6445-0.51562 3.625-1.5469 0.98828-1.0312 1.4844-2.3203 1.4844-3.875v-0.875zm11.688-2.8906v13.656h-7.7031v-3.5469c-1.0312 1.4492-2.1875 2.5078-3.4688 3.1719s-2.8398 1-4.6719 1c-2.4805 0-4.4961-0.72266-6.0469-2.1719-1.543-1.4453-2.3125-3.3203-2.3125-5.625 0-2.8125 0.96094-4.8672 2.8906-6.1719 1.9375-1.3125 4.9688-1.9688 9.0938-1.9688h4.5156v-0.60938c0-1.207-0.48047-2.0938-1.4375-2.6562-0.94922-0.5625-2.4375-0.84375-4.4688-0.84375-1.6367 0-3.1562 0.16797-4.5625 0.5-1.4062 0.32422-2.7188 0.8125-3.9375 1.4688v-5.8281c1.6445-0.40625 3.2891-0.70703 4.9375-0.90625 1.6562-0.20703 3.3047-0.3125 4.9531-0.3125 4.3203 0 7.4375 0.85547 9.3438 2.5625 1.9141 1.6992 2.875 4.4609 2.875 8.2812z"/>
  </symbol>
  <symbol id="b" overflow="visible">
   <path d="m12.031-30.719v6.7969h7.875v5.4688h-7.875v10.141c0 1.1172 0.21875 1.8711 0.65625 2.2656 0.4375 0.38672 1.3125 0.57812 2.625 0.57812h3.9375v5.4688h-6.5625c-3.0234 0-5.1641-0.62891-6.4219-1.8906-1.2617-1.2578-1.8906-3.3984-1.8906-6.4219v-10.141h-3.7969v-5.4688h3.7969v-6.7969z"/>
  </symbol>
  <symbol id="g" overflow="visible">
   <path d="m19.953-20.422v-12.812h7.6875v33.234h-7.6875v-3.4531c-1.0547 1.4062-2.2148 2.4375-3.4844 3.0938-1.2734 0.65625-2.7422 0.98438-4.4062 0.98438-2.9492 0-5.3711-1.1719-7.2656-3.5156-1.8867-2.3438-2.8281-5.3594-2.8281-9.0469s0.94141-6.7031 2.8281-9.0469c1.8945-2.3438 4.3164-3.5156 7.2656-3.5156 1.6562 0 3.1172 0.33594 4.3906 1 1.2812 0.65625 2.4453 1.6836 3.5 3.0781zm-5.0469 15.484c1.6445 0 2.8945-0.59766 3.75-1.7969 0.86328-1.1953 1.2969-2.9297 1.2969-5.2031 0-2.2812-0.43359-4.0195-1.2969-5.2188-0.85547-1.1953-2.1055-1.7969-3.75-1.7969-1.625 0-2.8711 0.60156-3.7344 1.7969-0.85547 1.1992-1.2812 2.9375-1.2812 5.2188 0 2.2734 0.42578 4.0078 1.2812 5.2031 0.86328 1.1992 2.1094 1.7969 3.7344 1.7969z"/>
  </symbol>
  <symbol id="f" overflow="visible">
   <path d="m16.406-4.9375c1.6328 0 2.8828-0.59766 3.75-1.7969 0.86328-1.1953 1.2969-2.9297 1.2969-5.2031 0-2.2812-0.43359-4.0195-1.2969-5.2188-0.86719-1.1953-2.1172-1.7969-3.75-1.7969-1.6367 0-2.8906 0.60547-3.7656 1.8125-0.875 1.1992-1.3125 2.9336-1.3125 5.2031 0 2.2617 0.4375 3.9961 1.3125 5.2031 0.875 1.1992 2.1289 1.7969 3.7656 1.7969zm-5.0781-15.484c1.0508-1.3945 2.2188-2.4219 3.5-3.0781 1.2812-0.66406 2.7539-1 4.4219-1 2.9453 0 5.3672 1.1719 7.2656 3.5156 1.8945 2.3438 2.8438 5.3594 2.8438 9.0469s-0.94922 6.7031-2.8438 9.0469c-1.8984 2.3438-4.3203 3.5156-7.2656 3.5156-1.668 0-3.1406-0.33594-4.4219-1s-2.4492-1.6914-3.5-3.0781v3.4531h-7.6562v-33.234h7.6562z"/>
  </symbol>
  <symbol id="e" overflow="visible">
   <path d="m0.53125-23.922h7.6562l6.4219 16.234 5.4688-16.234h7.6562l-10.062 26.188c-1.0117 2.6641-2.1953 4.5234-3.5469 5.5781-1.3438 1.0625-3.1211 1.5938-5.3281 1.5938h-4.4219v-5.0156h2.3906c1.3008 0 2.2422-0.21094 2.8281-0.625 0.59375-0.40625 1.0547-1.1484 1.3906-2.2188l0.20312-0.65625z"/>
  </symbol>
  <symbol id="d" overflow="visible">
   <path d="m0.21875-31.891h29.391v6.2188h-10.578v25.672h-8.2188v-25.672h-10.594z"/>
  </symbol>
  <symbol id="k" overflow="visible">
   <path d="m25.844-19.953c0.96875-1.4766 2.1172-2.6016 3.4531-3.375 1.332-0.78125 2.7969-1.1719 4.3906-1.1719 2.75 0 4.8438 0.85156 6.2812 2.5469 1.4375 1.6875 2.1562 4.1523 2.1562 7.3906v14.562h-7.6875v-12.469c0.007812-0.1875 0.019531-0.37891 0.03125-0.57812 0.007812-0.19531 0.015625-0.48438 0.015625-0.85938 0-1.6953-0.25-2.9258-0.75-3.6875-0.5-0.75781-1.3086-1.1406-2.4219-1.1406-1.4492 0-2.5703 0.60156-3.3594 1.7969-0.79297 1.1992-1.2031 2.9297-1.2344 5.1875v11.75h-7.6875v-12.469c0-2.6562-0.23047-4.3633-0.6875-5.125-0.44922-0.75781-1.2578-1.1406-2.4219-1.1406-1.4688 0-2.6055 0.60547-3.4062 1.8125-0.79297 1.1992-1.1875 2.918-1.1875 5.1562v11.766h-7.7031v-23.922h7.7031v3.5c0.9375-1.3516 2.0156-2.3672 3.2344-3.0469 1.2188-0.6875 2.5547-1.0312 4.0156-1.0312 1.6562 0 3.1133 0.40234 4.375 1.2031 1.2695 0.79297 2.2344 1.9062 2.8906 3.3438z"/>
  </symbol>
  <symbol id="j" overflow="visible">
   <path d="m11.328-3.4531v12.547h-7.6562v-33.016h7.6562v3.5c1.0508-1.3945 2.2188-2.4219 3.5-3.0781 1.2812-0.66406 2.7539-1 4.4219-1 2.9453 0 5.3672 1.1719 7.2656 3.5156 1.8945 2.3438 2.8438 5.3594 2.8438 9.0469s-0.94922 6.7031-2.8438 9.0469c-1.8984 2.3438-4.3203 3.5156-7.2656 3.5156-1.668 0-3.1406-0.33594-4.4219-1s-2.4492-1.6914-3.5-3.0781zm5.0781-15.5c-1.6367 0-2.8906 0.60547-3.7656 1.8125-0.875 1.1992-1.3125 2.9336-1.3125 5.2031 0 2.2617 0.4375 3.9961 1.3125 5.2031 0.875 1.1992 2.1289 1.7969 3.7656 1.7969 1.6328 0 2.8828-0.59766 3.75-1.7969 0.86328-1.1953 1.2969-2.9297 1.2969-5.2031 0-2.2812-0.43359-4.0195-1.2969-5.2188-0.86719-1.1953-2.1172-1.7969-3.75-1.7969z"/>
  </symbol>
  <symbol id="i" overflow="visible">
   <path d="m3.6719-33.234h7.6562v33.234h-7.6562z"/>
  </symbol>
 </defs>
 <g>
  <path d="m621.25 323.75c0-19.617-10.824-36.723-26.801-45.734l-8.207-155.98c-0.21875-4.2266-3.4492-7.6992-7.6562-8.2148l-17.211-2.1523c-77.262-9.6602-150.13-45.297-205.19-100.36-3.4219-3.4219-8.9531-3.4219-12.371 0-55.055 55.055-127.93 90.695-205.19 100.36l-17.211 2.1523c-4.1992 0.52344-7.4297 3.9883-7.6562 8.2148l-8.2109 155.98c-15.977 9.0117-26.801 26.117-26.801 45.734 0 18.777 9.9414 35.234 24.805 44.52l-24.719 172.99c-0.35938 2.5117 0.38672 5.0586 2.0469 6.9727 1.6641 1.918 4.0781 3.0195 6.6172 3.0195h87.5c2.5391 0 4.9453-1.1016 6.6055-3.0195 1.6641-1.918 2.4062-4.4609 2.0469-6.9727l-24.711-173c14.867-9.2773 24.809-25.734 24.809-44.512 0-15.145-6.4844-28.777-16.781-38.367l6.082-4.8633c35.133-28.113 60.602-66.816 73.07-109.67 34.117 7.9531 68.984 12.031 103.87 12.031 34.887 0 69.766-4.0781 103.87-12.031 12.469 42.859 37.949 81.559 73.078 109.67l6.082 4.8633c-10.289 9.5898-16.773 23.223-16.773 38.367 0 18.777 9.9414 35.234 24.805 44.52l-24.719 172.99c-0.35938 2.5117 0.38672 5.0586 2.0469 6.9727 1.6641 1.918 4.0781 3.0195 6.6172 3.0195h87.5c2.5391 0 4.9453-1.1016 6.6055-3.0195 1.6641-1.918 2.4062-4.4609 2.0469-6.9727l-24.711-173c14.867-9.2773 24.809-25.734 24.809-44.512zm-456.34 210h-24.91v-35h-17.5v35h-24.91l22.672-158.68c3.543 0.75781 7.2188 1.1797 10.988 1.1797s7.4453-0.42188 10.988-1.1797zm-33.66-175c-19.301 0-35-15.699-35-35s15.699-35 35-35 35 15.699 35 35-15.699 35-35 35zm406.64-91.902c-32.156-25.727-55.52-61.102-67.051-100.29 10.359-2.8438 20.66-5.9688 30.828-9.5547l-5.8281-16.512c-9.6406 3.4023-19.406 6.3711-29.234 9.0742-1.2695-6.3359-2.25-12.738-2.8945-19.199l-17.414 1.7422c0.73438 7.3242 1.8477 14.586 3.3242 21.762-65.434 15.227-133.8 15.227-199.23 0 1.4688-7.1758 2.5898-14.438 3.3242-21.762l-17.414-1.7422c-0.64844 6.457-1.6289 12.863-2.8945 19.199-9.8281-2.7031-19.59-5.6719-29.234-9.0742l-5.8281 16.512c10.168 3.5859 20.465 6.7109 30.828 9.5547-11.523 39.191-34.887 74.566-67.043 100.29l-10.598 8.4805c-6.2539-2.625-13.098-4.0781-20.281-4.0781-2.6758 0-5.2852 0.26172-7.8477 0.65625l7.4531-141.63 9.9492-1.25c78.234-9.7734 152.18-44.941 209.2-99.305 57.016 54.363 130.96 89.52 209.2 99.305l9.9492 1.25 7.4531 141.63c-2.5703-0.39453-5.1797-0.65625-7.8555-0.65625-7.1836 0-14.027 1.4531-20.266 4.0781zm30.859 21.902c19.301 0 35 15.699 35 35s-15.699 35-35 35-35-15.699-35-35 15.699-35 35-35zm33.66 245h-24.91v-35h-17.5v35h-24.91l22.672-158.68c3.543 0.75781 7.2188 1.1797 10.988 1.1797s7.4453-0.42188 10.988-1.1797z"/>
  <path d="m283.69 302.78 60.488 53.77c1.6641 1.4688 3.7461 2.2031 5.8203 2.2031s4.1562-0.73438 5.8203-2.2148l60.488-53.77c13.465-11.977 21.191-29.18 21.191-47.195 0-28.098-21.098-51.871-48.027-54.137-14.605-1.2344-28.797 3.668-39.48 13.344-11.891-10.754-28.113-15.566-44.328-12.723-25.008 4.4023-43.164 26.898-43.164 53.516 0 18.023 7.7266 35.219 21.191 47.207zm24.992-83.477c2.125-0.36719 4.25-0.55078 6.3438-0.55078 11 0 21.141 5.0664 27.957 14.219 3.2969 4.4258 10.727 4.4258 14.035 0 7.3242-9.8438 18.953-15.059 30.984-14.098 17.945 1.5156 31.996 17.625 31.996 36.699 0 13.02-5.5898 25.461-15.32 34.125l-54.68 48.598-54.68-48.598c-9.7383-8.6641-15.32-21.105-15.32-34.133 0-17.809 12.328-33.391 28.684-36.262z"/>
  <path d="m122.5 315h17.5v17.5h-17.5z"/>
  <path d="m560 315h17.5v17.5h-17.5z"/>
  <path d="m490 498.75h-280c-4.8281 0-8.75 3.9102-8.75 8.75v35c0 4.8398 3.9219 8.75 8.75 8.75h280c4.8281 0 8.75-3.9102 8.75-8.75v-35c0-4.8398-3.9219-8.75-8.75-8.75zm-8.75 35h-262.5v-17.5h262.5z"/>
  <path d="m350 61.25c-19.301 0-35 15.699-35 35s15.699 35 35 35 35-15.699 35-35-15.699-35-35-35zm0 52.5c-9.6523 0-17.5-7.8477-17.5-17.5s7.8477-17.5 17.5-17.5 17.5 7.8477 17.5 17.5-7.8477 17.5-17.5 17.5z"/>
  <path d="m236.25 411.25c0 4.8398 3.9219 8.75 8.75 8.75s8.75-3.9102 8.75-8.75c0-19.301 15.699-35 35-35 4.8281 0 8.75-3.9102 8.75-8.75s-3.9219-8.75-8.75-8.75c-19.301 0-35-15.699-35-35 0-4.8398-3.9219-8.75-8.75-8.75s-8.75 3.9102-8.75 8.75c0 19.301-15.699 35-35 35-4.8281 0-8.75 3.9102-8.75 8.75s3.9219 8.75 8.75 8.75c19.301 0 35 15.699 35 35zm8.75-58.512c3.8867 5.8438 8.918 10.867 14.762 14.762-5.8438 3.8867-10.867 8.918-14.762 14.762-3.8867-5.8438-8.918-10.867-14.762-14.762 5.8438-3.8867 10.875-8.918 14.762-14.762z"/>
  <path d="m507.5 420c-19.301 0-35-15.699-35-35 0-4.8398-3.9219-8.75-8.75-8.75s-8.75 3.9102-8.75 8.75c0 19.301-15.699 35-35 35-4.8281 0-8.75 3.9102-8.75 8.75s3.9219 8.75 8.75 8.75c19.301 0 35 15.699 35 35 0 4.8398 3.9219 8.75 8.75 8.75s8.75-3.9102 8.75-8.75c0-19.301 15.699-35 35-35 4.8281 0 8.75-3.9102 8.75-8.75s-3.9219-8.75-8.75-8.75zm-43.75 23.512c-3.8867-5.8438-8.918-10.867-14.762-14.762 5.8438-3.8867 10.867-8.918 14.762-14.762 3.8867 5.8438 8.918 10.867 14.762 14.762-5.8438 3.8867-10.875 8.918-14.762 14.762z"/>
  <use x="70" y="691.25" xlink:href="#l"/>
  <use x="102.109375" y="691.25" xlink:href="#h"/>
  <use x="123.683594" y="691.25" xlink:href="#a"/>
  <use x="153.355469" y="691.25" xlink:href="#c"/>
  <use x="182.878906" y="691.25" xlink:href="#b"/>
  <use x="203.792969" y="691.25" xlink:href="#a"/>
  <use x="233.464844" y="691.25" xlink:href="#g"/>
  <use x="280.011719" y="691.25" xlink:href="#f"/>
  <use x="311.328125" y="691.25" xlink:href="#e"/>
  <use x="355.078125" y="691.25" xlink:href="#d"/>
  <use x="384.921875" y="691.25" xlink:href="#a"/>
  <use x="414.59375" y="691.25" xlink:href="#k"/>
  <use x="460.183594" y="691.25" xlink:href="#j"/>
  <use x="491.5" y="691.25" xlink:href="#i"/>
  <use x="506.496094" y="691.25" xlink:href="#c"/>
  <use x="536.019531" y="691.25" xlink:href="#b"/>
  <use x="556.933594" y="691.25" xlink:href="#a"/>
 </g>
</svg>
