<?xml version="1.0" encoding="UTF-8"?>
<svg width="700pt" height="700pt" version="1.1" viewBox="0 0 700 700" xmlns="http://www.w3.org/2000/svg">
 <g>
  <path d="m350 232c52.801 0 96-59.199 96-112s-43.199-96-96-96-96 43.199-96 96 43.199 112 96 112z"/>
  <path d="m428.4 230.4c-20.801 20.801-48 33.602-78.398 33.602s-57.602-12.801-78.398-33.602c-156.8 64-126.4 228.8-129.6 241.6 0 17.602 14.398 32 32 32h48v-80c0-35.199 27.199-62.398 62.398-64 6.3984-19.199 25.602-32 44.801-32h41.602c20.801 0 38.398 12.801 44.801 32 35.199 1.6016 62.398 28.801 62.398 64v80h48c17.602 0 32-14.398 32-32-3.1992-12.801 27.199-177.6-129.6-241.6z"/>
  <path d="m414 392h-20.801l-6.3984-20.801c-1.6016-6.3984-8-11.199-14.398-11.199h-41.602c-6.3984 0-12.801 4.8008-14.398 11.199l-6.3984 20.801h-20.801c-17.602 0-32 14.398-32 32v80c0 17.602 14.398 32 32 32h128c17.602 0 32-14.398 32-32v-80c-3.2031-17.602-17.602-32-35.203-32zm-64 128c-35.199 0-64-28.801-64-64s28.801-64 64-64 64 28.801 64 64-28.801 64-64 64z"/>
  <path d="m382 456c0 17.672-14.328 32-32 32s-32-14.328-32-32 14.328-32 32-32 32 14.328 32 32"/>
 </g>
</svg>
